
        <mxGraphModel dx="667" dy="497" grid="1" gridSize="10" guides="1" tooltips="1" connect="1" arrows="1" fold="1" page="1" pageScale="1" pageWidth="700" pageHeight="1400" math="0" shadow="0">
            <root>
                <mxCell id="0"/>
                <mxCell id="1" parent="0"/>
                
                <mxCell id="2" value="Assets" style="childLayout=tableLayout;recursiveResize=0;strokeColor=#98bf21;fillColor=#ffffff;shadow=0;rounded=0;glass=0;" parent="1" vertex="1">
                    <mxGeometry   width="270" height="80" as="geometry"/>
                </mxCell>

                <mxCell id="3" style="shape=tableRow;horizontal=0;startSize=0;swimlaneHead=0;swimlaneBody=0;top=0;left=0;bottom=0;right=0;dropTarget=0;collapsible=0;recursiveResize=0;expand=0;fontStyle=0;strokeColor=inherit;fillColor=#ffffff;" vertex="1" parent="2">
                    <mxGeometry   width="270" height="20" as="geometry"/>
                </mxCell>

                <mxCell id="4" value="Epi" style="connectable=0;recursiveResize=0;strokeColor=inherit;fillColor=#A7C942;align=center;fontStyle=1;fontColor=#ffffff;html=1;" vertex="1" parent="3">
                    <mxGeometry   width="90" height="20" as="geometry">
                        <mxRectangle width="90" height="20" as="alternateBounds"/>
                    </mxGeometry>
                </mxCell>

                <mxCell id="5" value="Type" style="connectable=0;recursiveResize=0;strokeColor=inherit;fillColor=#A7C942;align=center;fontStyle=1;fontColor=#ffffff;html=1;" vertex="1" parent="3">
                    <mxGeometry x="90"  width="90" height="20" as="geometry">
                        <mxRectangle width="90" height="20" as="alternateBounds"/>
                    </mxGeometry>
                </mxCell>

                <mxCell id="6" value="Vec" style="connectable=0;recursiveResize=0;strokeColor=inherit;fillColor=#A7C942;align=center;fontStyle=1;fontColor=#ffffff;html=1;" vertex="1" parent="3">
                    <mxGeometry x="180"  width="90" height="20" as="geometry">
                        <mxRectangle width="90" height="20" as="alternateBounds"/>
                    </mxGeometry>
                </mxCell>

                <mxCell id="7" style="shape=tableRow;horizontal=0;startSize=0;swimlaneHead=0;swimlaneBody=0;top=0;left=0;bottom=0;right=0;dropTarget=0;collapsible=0;recursiveResize=0;expand=0;fontStyle=0;strokeColor=inherit;fillColor=#ffffff;" vertex="1" parent="2">
                    <mxGeometry  y="20" width="270" height="20" as="geometry"/>
                </mxCell>

                <mxCell id="8" value="S" style="connectable=0;recursiveResize=0;strokeColor=inherit;fillColor=#ffffff;align=center;fontStyle=0;fontColor=030303;html=1;" vertex="1" parent="7">
                    <mxGeometry   width="90" height="20" as="geometry">
                        <mxRectangle width="90" height="20" as="alternateBounds"/>
                    </mxGeometry>
                </mxCell>

                <mxCell id="9" value="susceptible" style="connectable=0;recursiveResize=0;strokeColor=inherit;fillColor=#ffffff;align=center;fontStyle=0;fontColor=030303;html=1;" vertex="1" parent="7">
                    <mxGeometry x="90"  width="90" height="20" as="geometry">
                        <mxRectangle width="90" height="20" as="alternateBounds"/>
                    </mxGeometry>
                </mxCell>

                <mxCell id="10" value="state" style="connectable=0;recursiveResize=0;strokeColor=inherit;fillColor=#ffffff;align=center;fontStyle=0;fontColor=030303;html=1;" vertex="1" parent="7">
                    <mxGeometry x="180"  width="90" height="20" as="geometry">
                        <mxRectangle width="90" height="20" as="alternateBounds"/>
                    </mxGeometry>
                </mxCell>

                <mxCell id="11" style="shape=tableRow;horizontal=0;startSize=0;swimlaneHead=0;swimlaneBody=0;top=0;left=0;bottom=0;right=0;dropTarget=0;collapsible=0;recursiveResize=0;expand=0;fontStyle=0;strokeColor=inherit;fillColor=#ffffff;" vertex="1" parent="2">
                    <mxGeometry  y="40" width="270" height="20" as="geometry"/>
                </mxCell>

                <mxCell id="12" value="I" style="connectable=0;recursiveResize=0;strokeColor=inherit;fillColor=#EAF2D3;align=center;fontStyle=0;fontColor=030303;html=1;" vertex="1" parent="11">
                    <mxGeometry   width="90" height="20" as="geometry">
                        <mxRectangle width="90" height="20" as="alternateBounds"/>
                    </mxGeometry>
                </mxCell>

                <mxCell id="13" value="infectious" style="connectable=0;recursiveResize=0;strokeColor=inherit;fillColor=#EAF2D3;align=center;fontStyle=0;fontColor=030303;html=1;" vertex="1" parent="11">
                    <mxGeometry x="90"  width="90" height="20" as="geometry">
                        <mxRectangle width="90" height="20" as="alternateBounds"/>
                    </mxGeometry>
                </mxCell>

                <mxCell id="14" value="state" style="connectable=0;recursiveResize=0;strokeColor=inherit;fillColor=#EAF2D3;align=center;fontStyle=0;fontColor=030303;html=1;" vertex="1" parent="11">
                    <mxGeometry x="180"  width="90" height="20" as="geometry">
                        <mxRectangle width="90" height="20" as="alternateBounds"/>
                    </mxGeometry>
                </mxCell>

                <mxCell id="15" style="shape=tableRow;horizontal=0;startSize=0;swimlaneHead=0;swimlaneBody=0;top=0;left=0;bottom=0;right=0;dropTarget=0;collapsible=0;recursiveResize=0;expand=0;fontStyle=0;strokeColor=inherit;fillColor=#ffffff;" vertex="1" parent="2">
                    <mxGeometry  y="60" width="270" height="20" as="geometry"/>
                </mxCell>

                <mxCell id="16" value="R" style="connectable=0;recursiveResize=0;strokeColor=inherit;fillColor=#ffffff;align=center;fontStyle=0;fontColor=030303;html=1;" vertex="1" parent="15">
                    <mxGeometry   width="90" height="20" as="geometry">
                        <mxRectangle width="90" height="20" as="alternateBounds"/>
                    </mxGeometry>
                </mxCell>

                <mxCell id="17" value="immune" style="connectable=0;recursiveResize=0;strokeColor=inherit;fillColor=#ffffff;align=center;fontStyle=0;fontColor=030303;html=1;" vertex="1" parent="15">
                    <mxGeometry x="90"  width="90" height="20" as="geometry">
                        <mxRectangle width="90" height="20" as="alternateBounds"/>
                    </mxGeometry>
                </mxCell>

                <mxCell id="18" value="state" style="connectable=0;recursiveResize=0;strokeColor=inherit;fillColor=#ffffff;align=center;fontStyle=0;fontColor=030303;html=1;" vertex="1" parent="15">
                    <mxGeometry x="180"  width="90" height="20" as="geometry">
                        <mxRectangle width="90" height="20" as="alternateBounds"/>
                    </mxGeometry>
                </mxCell>

                <mxCell id="19" value="Assets" style="childLayout=tableLayout;recursiveResize=0;strokeColor=#98bf21;fillColor=#ffffff;shadow=0;rounded=0;glass=0;" parent="18" vertex="1">
                    <mxGeometry x="100" y="100" width="270" height="60" as="geometry"/>
                </mxCell>

                <mxCell id="20" style="shape=tableRow;horizontal=0;startSize=0;swimlaneHead=0;swimlaneBody=0;top=0;left=0;bottom=0;right=0;dropTarget=0;collapsible=0;recursiveResize=0;expand=0;fontStyle=0;strokeColor=inherit;fillColor=#ffffff;" vertex="1" parent="19">
                    <mxGeometry   width="270" height="20" as="geometry"/>
                </mxCell>

                <mxCell id="21" value="Epi" style="connectable=0;recursiveResize=0;strokeColor=inherit;fillColor=#A7C942;align=center;fontStyle=1;fontColor=#ffffff;html=1;" vertex="1" parent="20">
                    <mxGeometry   width="90" height="20" as="geometry">
                        <mxRectangle width="90" height="20" as="alternateBounds"/>
                    </mxGeometry>
                </mxCell>

                <mxCell id="22" value="Type" style="connectable=0;recursiveResize=0;strokeColor=inherit;fillColor=#A7C942;align=center;fontStyle=1;fontColor=#ffffff;html=1;" vertex="1" parent="20">
                    <mxGeometry x="90"  width="90" height="20" as="geometry">
                        <mxRectangle width="90" height="20" as="alternateBounds"/>
                    </mxGeometry>
                </mxCell>

                <mxCell id="23" value="Vec" style="connectable=0;recursiveResize=0;strokeColor=inherit;fillColor=#A7C942;align=center;fontStyle=1;fontColor=#ffffff;html=1;" vertex="1" parent="20">
                    <mxGeometry x="180"  width="90" height="20" as="geometry">
                        <mxRectangle width="90" height="20" as="alternateBounds"/>
                    </mxGeometry>
                </mxCell>

                <mxCell id="24" style="shape=tableRow;horizontal=0;startSize=0;swimlaneHead=0;swimlaneBody=0;top=0;left=0;bottom=0;right=0;dropTarget=0;collapsible=0;recursiveResize=0;expand=0;fontStyle=0;strokeColor=inherit;fillColor=#ffffff;" vertex="1" parent="19">
                    <mxGeometry  y="20" width="270" height="20" as="geometry"/>
                </mxCell>

                <mxCell id="25" value="lambda" style="connectable=0;recursiveResize=0;strokeColor=inherit;fillColor=#ffffff;align=center;fontStyle=0;fontColor=030303;html=1;" vertex="1" parent="24">
                    <mxGeometry   width="90" height="20" as="geometry">
                        <mxRectangle width="90" height="20" as="alternateBounds"/>
                    </mxGeometry>
                </mxCell>

                <mxCell id="26" value="infection" style="connectable=0;recursiveResize=0;strokeColor=inherit;fillColor=#ffffff;align=center;fontStyle=0;fontColor=030303;html=1;" vertex="1" parent="24">
                    <mxGeometry x="90"  width="90" height="20" as="geometry">
                        <mxRectangle width="90" height="20" as="alternateBounds"/>
                    </mxGeometry>
                </mxCell>

                <mxCell id="27" value="flow" style="connectable=0;recursiveResize=0;strokeColor=inherit;fillColor=#ffffff;align=center;fontStyle=0;fontColor=030303;html=1;" vertex="1" parent="24">
                    <mxGeometry x="180"  width="90" height="20" as="geometry">
                        <mxRectangle width="90" height="20" as="alternateBounds"/>
                    </mxGeometry>
                </mxCell>

                <mxCell id="28" style="shape=tableRow;horizontal=0;startSize=0;swimlaneHead=0;swimlaneBody=0;top=0;left=0;bottom=0;right=0;dropTarget=0;collapsible=0;recursiveResize=0;expand=0;fontStyle=0;strokeColor=inherit;fillColor=#ffffff;" vertex="1" parent="19">
                    <mxGeometry  y="40" width="270" height="20" as="geometry"/>
                </mxCell>

                <mxCell id="29" value="gamma" style="connectable=0;recursiveResize=0;strokeColor=inherit;fillColor=#EAF2D3;align=center;fontStyle=0;fontColor=030303;html=1;" vertex="1" parent="28">
                    <mxGeometry   width="90" height="20" as="geometry">
                        <mxRectangle width="90" height="20" as="alternateBounds"/>
                    </mxGeometry>
                </mxCell>

                <mxCell id="30" value="recovery" style="connectable=0;recursiveResize=0;strokeColor=inherit;fillColor=#EAF2D3;align=center;fontStyle=0;fontColor=030303;html=1;" vertex="1" parent="28">
                    <mxGeometry x="90"  width="90" height="20" as="geometry">
                        <mxRectangle width="90" height="20" as="alternateBounds"/>
                    </mxGeometry>
                </mxCell>

                <mxCell id="31" value="flow" style="connectable=0;recursiveResize=0;strokeColor=inherit;fillColor=#EAF2D3;align=center;fontStyle=0;fontColor=030303;html=1;" vertex="1" parent="28">
                    <mxGeometry x="180"  width="90" height="20" as="geometry">
                        <mxRectangle width="90" height="20" as="alternateBounds"/>
                    </mxGeometry>
                </mxCell>

            </root>
        </mxGraphModel>
